<svg xmlns="http://www.w3.org/2000/svg" width="320" height="320"><path d="M94.656 72.487c-.817.817-2.259 3.855-3.204 6.75-2.226 6.825-2.391 7-8.643 9.16C74.087 91.411 74 91.636 74 111.111 74 125.457 73.774 128 72.5 128c-1.011 0-1.5-1.011-1.5-3.1 0-2.428-1.287-4.431-5.942-9.25l-5.942-6.15-16.181-.321c-10.698-.211-17.129.073-18.979.839-1.54.638-5.76 4.226-9.378 7.974L8 124.806v28.625l4.712 4.785L17.425 163l-4.713 4.784L8 172.569v28.625l6.578 6.814c3.618 3.748 7.838 7.336 9.378 7.974 1.85.766 8.281 1.05 18.979.839l16.181-.321 5.942-6.15c4.655-4.819 5.942-6.822 5.942-9.25 0-2.089.489-3.1 1.5-3.1 1.266 0 1.5 2.321 1.5 14.889 0 17.23.219 17.745 8.809 20.714 6.252 2.16 6.417 2.335 8.643 9.16C94.383 251.747 88.211 251 159.5 251s65.117.747 68.048-8.237c2.225-6.82 2.388-6.993 8.643-9.189 8.994-3.157 8.809-2.731 8.809-20.229 0-14.678.087-15.345 2-15.345 1.57 0 2 .667 2 3.1 0 2.428 1.287 4.431 5.942 9.25l5.942 6.15 16.181.321c10.698.211 17.129-.073 18.979-.839 1.54-.638 5.76-4.226 9.378-7.974l6.578-6.814v-28.625l-4.712-4.785-4.713-4.784 4.713-4.784 4.712-4.785v-28.625l-6.578-6.814c-3.618-3.748-7.838-7.336-9.378-7.974-1.85-.766-8.281-1.05-18.979-.839l-16.181.321-5.942 6.15c-4.655 4.819-5.942 6.822-5.942 9.25 0 2.433-.43 3.1-2 3.1-1.923 0-2-.667-2-17.345 0-19.753.283-19.038-8.809-22.229-6.255-2.196-6.418-2.369-8.643-9.189C224.617 70.253 230.789 71 159.5 71c-54.731 0-63.56.202-64.844 1.487m9.653 14.762c-.445.688-1.484 3.05-2.309 5.25-1.254 3.346-2.442 4.458-7.25 6.788L89 102.074V220.02l5.745 2.74c4.818 2.298 5.987 3.385 7.25 6.741.828 2.2 1.869 4.562 2.314 5.25 1.181 1.823 109.201 1.823 110.382 0 .445-.688 1.486-3.05 2.314-5.25 1.263-3.356 2.432-4.443 7.25-6.741l5.745-2.74V102.074l-5.75-2.787c-4.808-2.33-5.996-3.442-7.25-6.788-.825-2.2-1.864-4.562-2.309-5.25-1.181-1.823-109.201-1.823-110.382 0m-78.693 40.754C22.18 131.806 22 132.358 22 139.069c0 3.884.463 7.928 1.03 8.986 1.491 2.786 6.258 4.945 10.92 4.945H38v20h-5.077c-4.278 0-5.537.46-8 2.923C22.199 178.647 22 179.37 22 186.541c0 7.605.045 7.74 3.882 11.577L29.765 202h11.462C54.322 202 56 201.162 56 194.622c0-4.825 2.438-9.458 5.613-10.665 1.384-.526 4.963-.957 7.952-.957H75v-40h-5.453C60.105 143 56 139.426 56 131.205c0-6.379-1.744-7.205-15.212-7.205H29.233l-3.617 4.003m240.039-2.174c-.91 1.006-1.655 3.459-1.655 5.453 0 8.096-4.157 11.718-13.45 11.718H245v40h5.435c2.989 0 6.568.431 7.952.957 3.214 1.222 5.613 5.855 5.613 10.838 0 6.352 1.769 7.205 14.946 7.205h11.289l3.883-3.882c3.837-3.837 3.882-3.972 3.882-11.577 0-7.171-.199-7.894-2.923-10.618-2.463-2.463-3.722-2.923-8-2.923H282v-20h4.05c4.662 0 9.429-2.159 10.92-4.945.567-1.058 1.03-5.102 1.03-8.986 0-6.711-.18-7.263-3.616-11.066L290.767 124h-11.728c-10.093 0-11.96.255-13.384 1.829m-82.289 12.421C178.565 143.406 165 159.781 165 160.42c0 .319 9.45.58 21 .58 14.144 0 21-.347 21-1.061 0-.898-19.623-24.939-20.356-24.939-.138 0-1.613 1.463-3.278 3.25m5.723 44.839C183.54 189.743 179 195.595 179 196.093c0 .514 9.11.907 21 .907 11.55 0 21-.253 21-.561 0-.706-19.683-24.125-20.916-24.887-.499-.308-5.447 4.883-10.995 11.537m-62.728 12.166c-5.576 6.735-9.937 12.583-9.691 12.995.737 1.235 41.33.919 41.33-.321 0-1.45-18.899-24.365-20.35-24.674-.632-.135-5.713 5.265-11.289 12" fill="#ffffff" fill-rule="evenodd"/></svg>