<svg xmlns="http://www.w3.org/2000/svg" width="320" height="320" viewBox="0 0 320 320" version="1.1"><path d="M 104.309 87.249 C 103.864 87.937, 102.825 90.299, 102 92.499 C 100.746 95.845, 99.558 96.957, 94.750 99.287 L 89 102.074 89 161.047 L 89 220.020 94.745 222.760 C 99.563 225.058, 100.732 226.145, 101.995 229.501 C 102.823 231.701, 103.864 234.063, 104.309 234.751 C 105.490 236.574, 213.510 236.574, 214.691 234.751 C 215.136 234.063, 216.177 231.701, 217.005 229.501 C 218.268 226.145, 219.437 225.058, 224.255 222.760 L 230 220.020 230 161.047 L 230 102.074 224.250 99.287 C 219.442 96.957, 218.254 95.845, 217 92.499 C 216.175 90.299, 215.136 87.937, 214.691 87.249 C 213.510 85.426, 105.490 85.426, 104.309 87.249 M 25.616 128.003 C 22.180 131.806, 22 132.358, 22 139.069 C 22 142.953, 22.463 146.997, 23.030 148.055 C 24.521 150.841, 29.288 153, 33.950 153 L 38 153 38 163 L 38 173 32.923 173 C 28.645 173, 27.386 173.460, 24.923 175.923 C 22.199 178.647, 22 179.370, 22 186.541 C 22 194.146, 22.045 194.281, 25.882 198.118 L 29.765 202 41.227 202 C 54.322 202, 56 201.162, 56 194.622 C 56 189.797, 58.438 185.164, 61.613 183.957 C 62.997 183.431, 66.576 183, 69.565 183 L 75 183 75 163 L 75 143 69.547 143 C 60.105 143, 56 139.426, 56 131.205 C 56 124.826, 54.256 124, 40.788 124 L 29.233 124 25.616 128.003 M 265.655 125.829 C 264.745 126.835, 264 129.288, 264 131.282 C 264 139.378, 259.843 143, 250.550 143 L 245 143 245 163 L 245 183 250.435 183 C 253.424 183, 257.003 183.431, 258.387 183.957 C 261.601 185.179, 264 189.812, 264 194.795 C 264 201.147, 265.769 202, 278.946 202 L 290.235 202 294.118 198.118 C 297.955 194.281, 298 194.146, 298 186.541 C 298 179.370, 297.801 178.647, 295.077 175.923 C 292.614 173.460, 291.355 173, 287.077 173 L 282 173 282 163 L 282 153 286.050 153 C 290.712 153, 295.479 150.841, 296.970 148.055 C 297.537 146.997, 298 142.953, 298 139.069 C 298 132.358, 297.820 131.806, 294.384 128.003 L 290.767 124 279.039 124 C 268.946 124, 267.079 124.255, 265.655 125.829 M 183.366 138.250 C 178.565 143.406, 165 159.781, 165 160.420 C 165 160.739, 174.450 161, 186 161 C 200.144 161, 207 160.653, 207 159.939 C 207 159.041, 187.377 135, 186.644 135 C 186.506 135, 185.031 136.463, 183.366 138.250 M 189.089 183.089 C 183.540 189.743, 179 195.595, 179 196.093 C 179 196.607, 188.110 197, 200 197 C 211.550 197, 221 196.747, 221 196.439 C 221 195.733, 201.317 172.314, 200.084 171.552 C 199.585 171.244, 194.637 176.435, 189.089 183.089 M 126.361 195.255 C 120.785 201.990, 116.424 207.838, 116.670 208.250 C 117.407 209.485, 158 209.169, 158 207.929 C 158 206.479, 139.101 183.564, 137.650 183.255 C 137.018 183.120, 131.937 188.520, 126.361 195.255" stroke="none" fill="#f39b64" fill-rule="evenodd"/><path d="M 94.656 72.487 C 93.839 73.304, 92.397 76.342, 91.452 79.237 C 89.226 86.062, 89.061 86.237, 82.809 88.397 C 74.087 91.411, 74 91.636, 74 111.111 C 74 125.457, 73.774 128, 72.500 128 C 71.489 128, 71 126.989, 71 124.900 C 71 122.472, 69.713 120.469, 65.058 115.650 L 59.116 109.500 42.935 109.179 C 32.237 108.968, 25.806 109.252, 23.956 110.018 C 22.416 110.656, 18.196 114.244, 14.578 117.992 L 8 124.806 8 139.118 L 8 153.431 12.712 158.216 L 17.425 163 12.712 167.784 L 8 172.569 8 186.882 L 8 201.194 14.578 208.008 C 18.196 211.756, 22.416 215.344, 23.956 215.982 C 25.806 216.748, 32.237 217.032, 42.935 216.821 L 59.116 216.500 65.058 210.350 C 69.713 205.531, 71 203.528, 71 201.100 C 71 199.011, 71.489 198, 72.500 198 C 73.766 198, 74 200.321, 74 212.889 C 74 230.119, 74.219 230.634, 82.809 233.603 C 89.061 235.763, 89.226 235.938, 91.452 242.763 C 94.383 251.747, 88.211 251, 159.500 251 C 230.789 251, 224.617 251.747, 227.548 242.763 C 229.773 235.943, 229.936 235.770, 236.191 233.574 C 245.185 230.417, 245 230.843, 245 213.345 C 245 198.667, 245.087 198, 247 198 C 248.570 198, 249 198.667, 249 201.100 C 249 203.528, 250.287 205.531, 254.942 210.350 L 260.884 216.500 277.065 216.821 C 287.763 217.032, 294.194 216.748, 296.044 215.982 C 297.584 215.344, 301.804 211.756, 305.422 208.008 L 312 201.194 312 186.882 L 312 172.569 307.288 167.784 L 302.575 163 307.288 158.216 L 312 153.431 312 139.118 L 312 124.806 305.422 117.992 C 301.804 114.244, 297.584 110.656, 296.044 110.018 C 294.194 109.252, 287.763 108.968, 277.065 109.179 L 260.884 109.500 254.942 115.650 C 250.287 120.469, 249 122.472, 249 124.900 C 249 127.333, 248.570 128, 247 128 C 245.077 128, 245 127.333, 245 110.655 C 245 90.902, 245.283 91.617, 236.191 88.426 C 229.936 86.230, 229.773 86.057, 227.548 79.237 C 224.617 70.253, 230.789 71, 159.500 71 C 104.769 71, 95.940 71.202, 94.656 72.487 M 104.309 87.249 C 103.864 87.937, 102.825 90.299, 102 92.499 C 100.746 95.845, 99.558 96.957, 94.750 99.287 L 89 102.074 89 161.047 L 89 220.020 94.745 222.760 C 99.563 225.058, 100.732 226.145, 101.995 229.501 C 102.823 231.701, 103.864 234.063, 104.309 234.751 C 105.490 236.574, 213.510 236.574, 214.691 234.751 C 215.136 234.063, 216.177 231.701, 217.005 229.501 C 218.268 226.145, 219.437 225.058, 224.255 222.760 L 230 220.020 230 161.047 L 230 102.074 224.250 99.287 C 219.442 96.957, 218.254 95.845, 217 92.499 C 216.175 90.299, 215.136 87.937, 214.691 87.249 C 213.510 85.426, 105.490 85.426, 104.309 87.249 M 25.616 128.003 C 22.180 131.806, 22 132.358, 22 139.069 C 22 142.953, 22.463 146.997, 23.030 148.055 C 24.521 150.841, 29.288 153, 33.950 153 L 38 153 38 163 L 38 173 32.923 173 C 28.645 173, 27.386 173.460, 24.923 175.923 C 22.199 178.647, 22 179.370, 22 186.541 C 22 194.146, 22.045 194.281, 25.882 198.118 L 29.765 202 41.227 202 C 54.322 202, 56 201.162, 56 194.622 C 56 189.797, 58.438 185.164, 61.613 183.957 C 62.997 183.431, 66.576 183, 69.565 183 L 75 183 75 163 L 75 143 69.547 143 C 60.105 143, 56 139.426, 56 131.205 C 56 124.826, 54.256 124, 40.788 124 L 29.233 124 25.616 128.003 M 265.655 125.829 C 264.745 126.835, 264 129.288, 264 131.282 C 264 139.378, 259.843 143, 250.550 143 L 245 143 245 163 L 245 183 250.435 183 C 253.424 183, 257.003 183.431, 258.387 183.957 C 261.601 185.179, 264 189.812, 264 194.795 C 264 201.147, 265.769 202, 278.946 202 L 290.235 202 294.118 198.118 C 297.955 194.281, 298 194.146, 298 186.541 C 298 179.370, 297.801 178.647, 295.077 175.923 C 292.614 173.460, 291.355 173, 287.077 173 L 282 173 282 163 L 282 153 286.050 153 C 290.712 153, 295.479 150.841, 296.970 148.055 C 297.537 146.997, 298 142.953, 298 139.069 C 298 132.358, 297.820 131.806, 294.384 128.003 L 290.767 124 279.039 124 C 268.946 124, 267.079 124.255, 265.655 125.829 M 183.366 138.250 C 178.565 143.406, 165 159.781, 165 160.420 C 165 160.739, 174.450 161, 186 161 C 200.144 161, 207 160.653, 207 159.939 C 207 159.041, 187.377 135, 186.644 135 C 186.506 135, 185.031 136.463, 183.366 138.250 M 189.089 183.089 C 183.540 189.743, 179 195.595, 179 196.093 C 179 196.607, 188.110 197, 200 197 C 211.550 197, 221 196.747, 221 196.439 C 221 195.733, 201.317 172.314, 200.084 171.552 C 199.585 171.244, 194.637 176.435, 189.089 183.089 M 126.361 195.255 C 120.785 201.990, 116.424 207.838, 116.670 208.250 C 117.407 209.485, 158 209.169, 158 207.929 C 158 206.479, 139.101 183.564, 137.650 183.255 C 137.018 183.120, 131.937 188.520, 126.361 195.255" stroke="none" fill="#0c0906" fill-rule="evenodd"/></svg>